# xmcd
#
# Track frame offsets:
# 167
# 23580
# 37477
# 55020
# 68632
# 81212
# 100412
# 119457
# 135300
# 150312
# 163640
# 179317
#
# Disc length: 2638 seconds
#
#
# Revision: 3
# Processed by: cddbd v1.5.1PL0 Copyright (c) Steve Scherf et al.
# Submitted via: FreeRIP 2.30 
#
DISCID=940a4c0c
DTITLE=Luther "Guitar Junior" Johnson - It's Good To Me
DYEAR=1900
DGENRE=
TTITLE0=Feel So Bad
TTITLE1=Come On Back To Me
TTITLE2=Deep Down In Florida
TTITLE3=I'm Leaving You
TTITLE4=If You Love Me Like You Say
TTITLE5=I Wonder
TTITLE6=Stealin' Chicken
TTITLE7=It's Good To Me
TTITLE8=Raise Your Window
TTITLE9=Next Door Neighbor
TTITLE10=That's All I Need
TTITLE11=In My Younger Days
EXTD=
EXTT0=
EXTT1=
EXTT2=
EXTT3=
EXTT4=
EXTT5=
EXTT6=
EXTT7=
EXTT8=
EXTT9=
EXTT10=
EXTT11=
PLAYORDER=
